<?xml version="1.0" standalone="no"?>
<!DOCTYPE svg PUBLIC "-//W3C//DTD SVG 1.1//EN" "http://www.w3.org/Graphics/SVG/1.1/DTD/svg11.dtd" >
<svg xmlns="http://www.w3.org/2000/svg">
<metadata>
This is a custom SVG webfont generated by Font Squirrel.
Copyright   : Copyright c 2011 by Dai Foldes All rights reserved
Designer    : Dai Foldes
</metadata>
<defs>
<font id="PigeonRegular" horiz-adv-x="614" >
<font-face units-per-em="2048" ascent="1577" descent="-471" />
<missing-glyph horiz-adv-x="356" />
<glyph unicode=" "  horiz-adv-x="356" />
<glyph unicode="&#x09;" horiz-adv-x="356" />
<glyph unicode="&#xa0;" horiz-adv-x="356" />
<glyph unicode="!" horiz-adv-x="548" d="M117 98q2 49 34.5 81t75.5 30h2q43 -4 73 -40t26 -83q-2 -43 -31 -74.5t-68 -36.5h-14h-4q-43 4 -70.5 41t-23.5 82zM193 336l20 1110q4 2 14.5 6t39 10t59.5 6q29 0 54.5 -9t37.5 -17l12 -8l-143 -1104q-2 -2 -7.5 -4t-17.5 -6.5t-22.5 -4.5t-22.5 5.5t-18 11.5z" />
<glyph unicode="&#x22;" horiz-adv-x="641" d="M176 1094q23 266 23 426q4 2 12 5t30.5 6t43.5 1q23 -2 40 -10.5t23 -14.5l6 -8q-39 -172 -108 -399q-14 -12 -35 -15q-21 -1 -35 9zM463 1094q23 266 22 426q4 2 12.5 5t31 6t42.5 1q23 -2 40.5 -10.5t23.5 -14.5l6 -8q-39 -172 -109 -399q-14 -12 -34 -15q-21 -1 -35 9 z" />
<glyph unicode="#" horiz-adv-x="1024" d="M-201 -422q2 33 27 76q10 18 22.5 35.5t20.5 25.5l8 9l174 -82q12 4 28.5 28.5t37 107.5t28.5 208q39 547 62 827h-184l4 55l188 47q0 25 4 46q18 324 234 473q100 70 225 69q129 0 211 -96q123 129 309 129q74 0 127 -57q-6 -33 -31 -76q-10 -18 -24.5 -39t-24.5 -33 l-10 -10l-211 102q-16 0 -45 -36.5t-59.5 -133t-38.5 -221.5l-11 -127l193 8l-6 -100l-193 4l-53 -725q-10 -143 -76.5 -271t-161.5 -200q-88 -66 -221 -65q-119 0 -202 77q-106 -106 -256 -106q-60 0 -95 51zM221 -272q86 -78 178 -78q70 0 123 41q49 39 85 138t44 224 l56 762h-342l-56 -770q-14 -192 -88 -317zM371 907h344l6 86q20 184 94 316q-84 100 -184 100q-55 0 -117 -47q-113 -90 -135 -363z" />
<glyph unicode="$" horiz-adv-x="811" d="M12 197q35 33 70 47l72 18l63 -180q39 -39 135 -39l31 371q-8 4 -25 16q-117 76 -169 143.5t-52 159.5q0 57 29 109.5t61 75.5q90 61 203 71l23 273h92l-23 -269q225 -8 256 -202q-20 -25 -55 -39q-33 -14 -78 -19l-57 180q-14 8 -72 13l-31 -365q246 -162 246 -297 q0 -145 -90 -208.5t-205 -73.5l-18 -213h-88l16 206h-2q-123 0 -214 61t-118 161zM281 768q0 -70 118 -152l25 302q-59 -16 -92 -46q-51 -38 -51 -104zM442 51q53 16 80 43q61 57 62 129q0 55 -117 133z" />
<glyph unicode="'" horiz-adv-x="354" d="M176 1094q23 266 23 426q4 2 12 5t30.5 6t43.5 1q23 -2 40 -10.5t23 -14.5l6 -8q-39 -172 -108 -399q-14 -12 -35 -15q-21 -1 -35 9z" />
<glyph unicode="(" horiz-adv-x="698" d="M195 455q2 348 140 631.5t372 449.5l53 -59q-184 -154 -299 -423.5t-115 -545.5q0 -332 43 -499t168 -339l-47 -69q-162 127 -239.5 352.5t-75.5 501.5z" />
<glyph unicode=")" horiz-adv-x="638" d="M-66 -338q182 152 299 422t117 547q0 330 -44 497.5t-169 339.5l45 68q162 -127 242 -352.5t78 -499.5q-2 -348 -140.5 -632.5t-371.5 -450.5z" />
<glyph unicode="*" horiz-adv-x="573" d="M55 1137l226 47l-203 123q8 31 28 55q8 10 19.5 18.5t17.5 12.5l9 4l159 -178l2 227q4 2 9.5 3t21.5 3t29 -2q14 -2 27.5 -7t21.5 -9l6 -4l-74 -220l207 117q23 -20 35 -51l8 -55l-235 -52l198 -114q-10 -29 -30 -54q-8 -10 -18.5 -18t-18.5 -12l-6 -4l-154 170l-2 -238 q-4 -2 -9 -3t-21.5 -3t-28.5 2l-54 20l74 230l-203 -115q-20 23 -33 53z" />
<glyph unicode="," horiz-adv-x="348" d="M12 -223l115 231q-80 37 -80 103q0 49 26.5 79.5t63.5 30.5q49 0 83 -27.5t34 -78.5q0 -43 -21 -105q-18 -47 -81.5 -137t-90.5 -106z" />
<glyph unicode="-" horiz-adv-x="647" d="M82 483l16 125h465l-16 -125h-465z" />
<glyph unicode="." horiz-adv-x="436" d="M45 104q2 51 38 86t79 31q47 -4 77.5 -42t26.5 -87q-4 -51 -38.5 -86t-80.5 -31q-45 2 -75.5 41t-26.5 88z" />
<glyph unicode="/" horiz-adv-x="587" d="M31 -276l475 1763h125l-479 -1763h-121z" />
<glyph unicode="0" horiz-adv-x="980" d="M96 416q0 252 124 383t325 131q133 0 233.5 -104.5t100.5 -293.5q0 -256 -118 -406.5t-323 -150.5q-141 0 -241.5 129.5t-100.5 311.5zM291 469q0 -410 172 -410q229 0 229 437q0 182 -39 269t-133 87q-98 0 -163.5 -92t-65.5 -291z" />
<glyph unicode="1" horiz-adv-x="665" d="M88 0l8 68l135 30l60 711l-121 14l4 64l275 41l-62 -830l135 -30l-8 -68h-426z" />
<glyph unicode="2" horiz-adv-x="849" d="M6 66l363 296q66 59 96.5 91t63 85.5t32.5 100.5q0 61 -17.5 101t-48 55.5t-54 20.5t-56.5 5q-88 0 -219 -78l-35 54q37 37 88 69q96 61 234 62q139 0 206.5 -59.5t67.5 -190.5q0 -80 -43 -142.5t-125 -132.5q-156 -133 -334 -276l426 29l62 100l51 -25l-39 -231h-715z " />
<glyph unicode="3" horiz-adv-x="856" d="M-66 -289q16 37 50 72q14 16 31.5 28.5t27.5 16.5l10 4l187 -133q143 29 232 133.5t89 249.5q0 94 -66.5 168t-160.5 90q-90 -20 -129 -31l-21 72q137 43 245 107.5t108 140.5q0 104 -44 149t-108 45q-88 0 -223 -78l-39 43q59 59 90 76q123 63 231 64q113 0 184.5 -60.5 t71.5 -187.5q0 -137 -194 -248q227 -78 227 -299q0 -119 -58.5 -222.5t-143.5 -166.5t-172 -100t-154 -37q-201 0 -271 104z" />
<glyph unicode="4" horiz-adv-x="1003" d="M43 131l604 801l135 -21l-63 -718h151l-24 -125h-135l-27 -437l-166 -12l43 449h-514zM199 193h383l51 575z" />
<glyph unicode="5" horiz-adv-x="948" d="M2 -289q16 29 51 68q33 37 66 55l147 -143q162 10 271.5 120.5t109.5 262.5q0 109 -70.5 173t-195.5 64q-115 0 -188 -24l81 624l562 15l-23 -162l-444 27l-50 -336q43 16 111 16q147 0 267 -89t120 -247q0 -221 -177 -374.5t-402 -153.5q-187 0 -236 104z" />
<glyph unicode="6" horiz-adv-x="966" d="M119 436q0 154 76.5 315.5t173.5 258.5q100 100 243.5 185t259.5 114l9 -80q-205 -78 -410 -314q-74 -84 -123 -235q168 98 273 98q242 0 241 -346q0 -182 -118.5 -319.5t-274.5 -137.5q-350 0 -350 461zM307 483q-37 -424 144 -434q78 -4 152.5 67.5t84.5 248.5 q4 76 -1 134t-16.5 86.5t-23.5 48t-20 23.5l-11 5q-125 10 -292 -70q-15 -58 -17 -109z" />
<glyph unicode="7" horiz-adv-x="940" d="M70 -393l663 1179l-500 -26l-61 -101l-51 25l26 231h695l37 -155q-129 -154 -326 -522q-180 -338 -242 -578l-202 -82z" />
<glyph unicode="8" horiz-adv-x="1028" d="M141 311q0 104 93.5 209t179.5 144q-166 135 -166 290q0 164 101.5 255t260.5 91q319 0 320 -286q0 -96 -80 -192.5t-164 -147.5q90 -66 140.5 -140.5t50.5 -183.5q0 -164 -117 -269.5t-277 -105.5q-342 0 -342 336zM322 358q-14 -127 19.5 -212t123.5 -97 q86 -10 156.5 43t85.5 191q8 70 -26 132t-74 98t-113 91q-14 10 -23 17q-61 -43 -101 -117t-48 -146zM418 1022q-10 -72 22.5 -132.5t69.5 -90t115 -82.5q43 39 78.5 106.5t46.5 143.5q4 61 5 117.5t-30 97.5t-96 45q-72 4 -134.5 -42t-76.5 -163z" />
<glyph unicode="9" horiz-adv-x="1001" d="M121 465q0 184 117.5 323.5t277.5 141.5q170 6 259 -102.5t89 -335.5q6 -154 -64.5 -319t-162.5 -277q-209 -236 -496 -308l-8 74q104 41 185 100.5t119 102.5t100 125q61 94 108 248q-147 -102 -233 -103q-115 -6 -200 72t-91 258zM295 532q0 -37 2 -67.5t5 -54t10 -44 t12.5 -34t17.5 -25.5t17.5 -18t20.5 -14.5t19 -10.5t19.5 -8t17.5 -6q92 -8 230 72q12 61 18 122q20 408 -160 412q-33 2 -66.5 -11.5t-69.5 -45t-61.5 -101.5t-31.5 -166z" />
<glyph unicode=":" horiz-adv-x="477" d="M102 106q2 51 38 85t81 32q45 -4 77 -43t26 -88q-4 -49 -39 -84t-80 -33t-76 42t-27 89zM143 731q2 51 37 85t80 32q45 -4 77 -43t28 -88q-2 -51 -38 -86t-83 -31q-45 4 -76 43t-25 88z" />
<glyph unicode=";" horiz-adv-x="477" d="M70 -223l114 233q-80 33 -80 103q0 49 27 79.5t64 30.5q49 0 82.5 -27.5t33.5 -78.5q0 -43 -20 -105q-18 -49 -81 -138t-91 -107zM141 731q4 63 54 98l20 11q8 4 14 4l17 4h12h2q45 -4 77 -43t28 -88q-2 -51 -38 -86t-83 -31q-45 2 -76 42t-27 89z" />
<glyph unicode="?" horiz-adv-x="835" d="M133 1260q23 84 100.5 146t198.5 62q170 0 275.5 -77.5t105.5 -231.5q0 -119 -66.5 -205t-224.5 -209q-80 -61 -107.5 -84.5t-50 -54.5t-22.5 -63q0 -37 16 -64q57 -59 136 -59l43 6v-70q-20 -20 -60 -20q-127 0 -196 57q-72 59 -72 154q0 63 57.5 139t198.5 199 q94 84 142 154.5t48 166.5q0 80 -67.5 135.5t-153.5 55.5q-51 0 -82 -21l-53 -182q-49 -10 -96 8q-56 21 -70 58zM227 104q2 51 38 86t79 31q47 -4 78 -42t27 -87q-4 -51 -39 -86t-80 -31q-45 2 -76 41t-27 88z" />
<glyph unicode="@" horiz-adv-x="1576" d="M94 403q0 344 217 570.5t566 226.5q285 0 452.5 -148.5t167.5 -443.5q0 -266 -127 -434q-66 -86 -127 -123t-149 -37q-84 0 -131 70q-33 43 -29 156q-137 -223 -225 -224q-98 0 -171 102.5t-73 291.5q0 168 78 290.5t184 169.5q45 23 115 23q27 0 164 -62q8 6 24.5 20.5 t28.5 25t20 10.5q10 0 21.5 -4t17.5 -9l8 -4l-53 -634q-12 -150 41 -150q57 0 95 25.5t87 95.5q72 100 72 411q0 238 -125 371t-375 133q-309 0 -466.5 -204.5t-157.5 -534.5q0 -279 138 -450t363 -171q242 0 453 105v-2q16 -8 21 -25v-37q-211 -123 -480 -122 q-283 0 -464 194t-181 528zM625 432q0 -248 86 -287q8 -4 16 -4q53 0 213 187l31 370q-139 92 -215 111q-10 0 -41 -52t-60.5 -145.5t-29.5 -179.5z" />
<glyph unicode="A" horiz-adv-x="1187" d="M-106 0l6 72l125 32l532 1330h162l340 -1336v6l110 -32l-4 -72h-460l4 72l155 32l-98 435h-444l-166 -435l174 -32l-4 -72h-432zM358 635h385l-143 625z" />
<glyph unicode="B" horiz-adv-x="1118" d="M0 0l4 66l158 36l92 1229l-129 37l4 66h475q434 0 434 -363q0 -266 -243 -334q258 -84 258 -364q0 -373 -435 -373h-618zM338 82h260q270 0 270 283q0 143 -68.5 226t-170.5 93h-248zM387 766l209 6q244 4 258 260q1 16 1 32q0 126 -59 198q-67 80 -182 92h-184z" />
<glyph unicode="C" horiz-adv-x="1243" d="M45 676q0 356 213 574t520 218q174 0 322 -94l51 60q16 -2 31 -11l24 -18l-2 -135l-18 -309l-78 -11l-80 285q-20 51 -110.5 97t-161.5 46q-219 0 -354.5 -190.5t-135.5 -530.5q0 -580 428 -579q66 0 143.5 36t114.5 81l113 290l68 -12l-48 -336q-74 -74 -187.5 -118 t-242.5 -44q-283 0 -446.5 177.5t-163.5 523.5z" />
<glyph unicode="D" horiz-adv-x="1316" d="M0 0l4 66l176 36l90 1229l-147 37l4 66h418q166 0 295 -37t205.5 -96.5t126 -143.5t66.5 -167t17 -177q0 -135 -25.5 -251t-85 -221t-150.5 -180t-230 -118t-313 -43h-451zM360 102h213q119 27 202 70t147.5 118t95.5 191.5t31 278.5q0 145 -28 246.5t-94.5 177.5 t-184 111.5t-291.5 35.5z" />
<glyph unicode="E" horiz-adv-x="1122" d="M0 0l4 66l158 36l92 1229l-129 37l4 66h872l33 -332l-67 -12l-86 245l-447 27l-45 -612l334 12l41 192h80l-35 -497h-66l-20 202l-338 13l-45 -596l557 26l86 246l68 -12l-33 -336h-1018z" />
<glyph unicode="F" horiz-adv-x="1034" d="M0 0l4 66l158 36l92 1229l-129 37l4 66h872l33 -336l-67 -13l-95 248l-440 29l-43 -612l293 12l41 192h80l-35 -497h-66l-20 202l-297 13l-43 -570l129 -36l-4 -66h-467z" />
<glyph unicode="G" horiz-adv-x="1343" d="M45 696q0 342 213 557t520 215q174 0 322 -94l61 64q16 -4 31 -13l22 -20l-10 -135l-22 -314l-66 -8l-86 289q-20 51 -111.5 96t-162.5 45q-219 0 -354.5 -187t-135.5 -513q0 -600 428 -600q70 0 138.5 30.5t109.5 84.5l25 339l-2 -4l-174 23l2 80h495l-4 -72l-139 -31 l-25 -374q-166 -178 -465 -179q-283 0 -446.5 180.5t-163.5 540.5z" />
<glyph unicode="H" horiz-adv-x="1429" d="M0 0l4 66l158 36l92 1229l-129 37l4 66h463l-4 -66l-156 -37h-2l-39 -549h660l41 549l-150 37l4 66h463l-4 -66l-135 -37h-2l-86 -1229l135 -30l-8 -72h-471l4 66l157 36l43 578h-657l-41 -578l156 -30l-8 -72h-492z" />
<glyph unicode="I" d="M0 0l4 66l158 36l92 1229l-129 37l4 66h463l-4 -66l-156 -37h-2l-86 -1229l156 -30l-8 -72h-492z" />
<glyph unicode="J" horiz-adv-x="604" d="M-262 -209q27 41 76 59q20 8 43.5 11.5t36.5 1.5l14 -2l74 -166q47 0 82.5 24.5t56 60.5t35 93t19.5 104.5t11 114.5l93 1235l-146 39l4 68h479l-4 -66l-155 -37h-2l-99 -1276q-20 -264 -143 -358q-106 -84 -203 -84q-100 0 -166 45q-81 53 -106 133z" />
<glyph unicode="K" horiz-adv-x="1169" d="M0 0l4 66l158 36l92 1229l-129 37l4 66h453l-4 -66l-148 -37h-2l-45 -645l573 645l-137 31l4 72h408l-4 -72l-123 -31l-494 -520l420 -702l127 -37l-8 -72h-467l8 72l127 30l2 -2l-305 611l-139 -146l-33 -463l125 -30l-8 -72h-459z" />
<glyph unicode="L" horiz-adv-x="940" d="M0 0l4 66l158 36l92 1229l-129 37l4 66h440l-4 -66l-135 -37l-88 -1249l459 22l84 244l67 -12l-32 -336h-920z" />
<glyph unicode="M" horiz-adv-x="1671" d="M-8 0l4 72l158 28l110 1217l-158 45l7 72h419l275 -1117l473 1117h401l-4 -72l-161 -43h-3l-73 -1217l147 -30l-4 -72h-489l4 72l155 30l93 1215l-564 -1325h-63l-342 1325l-98 -1219l4 4l143 -30l-4 -72h-430z" />
<glyph unicode="N" horiz-adv-x="1353" d="M6 0l4 72l156 28l74 1219l-142 43l4 72h375l572 -1123l51 1020l-156 31l4 72h418l-4 -72l-141 -31l-91 -1331h-100l-676 1298l-61 -1196l143 -30l-4 -72h-426z" />
<glyph unicode="O" horiz-adv-x="1310" d="M41 694q2 328 188.5 551t483.5 223q578 0 577 -653q0 -360 -195.5 -600t-492.5 -240q-86 0 -165 22.5t-152.5 77t-127 135.5t-85 204.5t-31.5 279.5zM262 662q0 -319 99.5 -451.5t279.5 -132.5q113 0 202 72.5t139 188.5t75.5 245t25.5 256q0 268 -101 403t-292 135 q-186 0 -307 -188t-121 -528z" />
<glyph unicode="P" horiz-adv-x="1060" d="M0 0l4 66l158 36l92 1229l-129 37l4 66h471q94 0 166 -14.5t137.5 -50.5t101 -111.5t35.5 -186.5q0 -219 -118.5 -348t-286.5 -129q-137 0 -254 43l-37 -535l156 -30l-8 -72h-492zM387 723q106 -29 240 -29q109 27 162 103.5t65 234.5q1 19 1 37q0 110 -54 181 q-63 83 -191 104h-178z" />
<glyph unicode="Q" horiz-adv-x="1310" d="M41 694q2 328 188.5 551t483.5 223q578 0 577 -653q0 -340 -176 -570.5t-444 -262.5h-8q57 -115 184 -186.5t262 -71.5q133 0 209 47l26 -76q-123 -131 -313 -131q-102 0 -197.5 35.5t-154.5 91.5q-141 133 -178 295q-201 35 -330 206.5t-129 501.5zM262 662 q0 -319 99.5 -451.5t279.5 -132.5q113 0 202 72.5t139 188.5t75.5 245t25.5 256q0 268 -101 403t-292 135q-186 0 -307 -188t-121 -528z" />
<glyph unicode="R" horiz-adv-x="1140" d="M0 0l4 66l158 36l92 1229l-129 37l4 66h487q195 0 315 -85t120 -268q0 -180 -101.5 -273t-263.5 -110q72 -6 134.5 -53t88.5 -137l117 -404l125 -36l-8 -68h-295l-127 563q-20 88 -186 92l-154 2l-39 -555l156 -30l-9 -72h-489zM385 748q39 0 223 6q109 2 179.5 74.5 t78.5 213.5q1 15 1 30q0 256 -240 282h-197z" />
<glyph unicode="S" horiz-adv-x="1001" d="M41 37l8 147l17 279l67 12l78 -278q29 -53 102.5 -88t139.5 -35q121 0 192 84q70 80 70 180q0 106 -59.5 188t-192.5 164q-193 117 -268.5 207t-75.5 213q0 172 129 265t321 93q168 0 277 -92l43 66q16 -2 31 -10l24 -19l-2 -166l-8 -256l-68 -12l-78 248 q-66 145 -233 145q-104 0 -179 -67.5t-75 -178.5q0 -57 56.5 -111t215.5 -151q176 -109 250 -214t74 -279q0 -166 -127 -281t-336 -115q-156 0 -284 99l-54 -68q-14 2 -28 10z" />
<glyph unicode="T" horiz-adv-x="1173" d="M20 1100l50 334h1104v-109h-3l-4 -225l-67 -13l-53 248l-340 27l-95 -1260l129 -36l-4 -66h-440l4 66l133 36l88 1229l2 31l-338 -29l-98 -246z" />
<glyph unicode="U" horiz-adv-x="1255" d="M61 1368l5 66h464l-4 -66l-155 -37l-54 -844v-22q0 -183 63 -275q67 -96 230 -96q170 0 250 103q80 100 101 311q27 283 57 823l-129 37l4 66h414l-4 -66l-146 -41h-2l-80 -827q-31 -291 -127 -387q-139 -139 -362 -140q-231 0 -348 111q-112 103 -112 319q0 25 1 52 l63 876z" />
<glyph unicode="V" horiz-adv-x="1175" d="M20 1368l5 66h475l-6 -66v-6l-156 -31l256 -1116l414 1116l-174 37l4 66h440l-4 -66l-127 -37l-522 -1331h-162l-332 1331z" />
<glyph unicode="W" horiz-adv-x="1669" d="M0 1362l4 72h485l-4 -72l-149 -31l162 -1042l342 829l-37 215v-2l-156 31l4 72h500l-4 -72l-164 -31l158 -1024l358 1024l-156 31l5 72h417l-4 -72l-129 -31l-510 -1331h-94l-158 932l-399 -932h-94l-225 1335l-2 -4z" />
<glyph unicode="X" horiz-adv-x="1114" d="M-109 0l5 72l143 30l2 -2l428 615l-276 616l-150 31l4 72h498l-4 -72l-154 -31l234 -500l297 500l-160 31l4 72h430l-4 -72l-129 -31l-402 -577l306 -656l2 4l129 -36l-4 -66h-480l4 66l131 34l-235 527l-328 -527l158 -28l-4 -72h-445z" />
<glyph unicode="Y" horiz-adv-x="1167" d="M20 1362l5 72h483l-6 -72l-144 -31l246 -586v-6l332 592l-174 31l4 72h459l-4 -72l-129 -29l-445 -721l-39 -510l129 -36l-4 -66h-440l4 66l135 36l45 514l-325 717z" />
<glyph unicode="Z" horiz-adv-x="1011" d="M-10 0l4 66l837 1290l-587 -37l-92 -229l-68 12l51 332h897l4 -66l-813 -1282l611 35l94 227l67 -12l-53 -336h-952z" />
<glyph unicode="[" d="M145 -348l140 1866h297l-7 -72l-151 -23l-129 -1677l149 -20l-4 -72z" />
<glyph unicode="\" horiz-adv-x="679" d="M55 1487h125l457 -1763h-121z" />
<glyph unicode="]" horiz-adv-x="593" d="M51 -348l6 72l142 22l129 1677l-160 21l4 72l305 2l-139 -1866h-287z" />
<glyph unicode="a" horiz-adv-x="942" d="M76 406q0 182 84 313t198 184q53 25 123 25q39 0 201 -66q10 6 27.5 21.5t30 26t20.5 10.5q10 0 23.5 -4.5t19.5 -8.5l8 -4l-68 -803l136 -30l-9 -70q-66 -8 -135 -8q-76 0 -111 40q-32 36 -33 92q0 6 1 13l6 82q-57 -88 -129 -161.5t-131 -73.5q-104 0 -183 109.5 t-79 312.5zM248 430q0 -268 92 -309q8 -4 18 -4q78 0 248 190l37 410q-152 92 -254 119q-12 0 -45 -56.5t-64.5 -157t-31.5 -192.5z" />
<glyph unicode="b" horiz-adv-x="923" d="M82 1432l4 63l279 41l-64 -856q45 63 90 108q131 127 223 127q100 0 165 -95t65 -288q0 -96 -43 -223t-80 -174q-37 -49 -62.5 -75.5t-90 -55.5t-148.5 -29q-205 0 -322 105l105 1337zM260 141q59 -84 182 -84q102 0 166 123q61 123 62 340q0 82 -21.5 143.5t-42.5 81.5 l-22 23q-86 0 -164 -66q-16 -12 -127 -129z" />
<glyph unicode="c" horiz-adv-x="774" d="M63 403q0 301 228 459q94 66 225 66q109 0 172.5 -56.5t73.5 -152.5q-25 -37 -60 -51q-16 -8 -38.5 -11.5t-36.5 -3.5h-13l-55 187q-16 10 -53 10q-82 0 -158 -86q-106 -119 -106 -330q0 -137 19.5 -212t78.5 -107q23 -14 57 -15q131 0 273 168l51 -55 q-61 -98 -157.5 -168t-215.5 -70q-127 0 -206 101.5t-79 326.5z" />
<glyph unicode="d" horiz-adv-x="952" d="M57 406q0 174 76 303t184 188q53 31 129 31q37 0 222 -115l34 606l-120 15l4 63l274 39l-106 -1438l135 -30l-8 -70q-66 -8 -136 -8q-76 0 -112 41q-33 37 -33 93v13l8 99q-150 -236 -268 -236q-129 0 -206 113t-77 293zM231 436q0 -231 109 -297q12 -6 25 -6 q82 0 249 191l29 352q-147 113 -274 158q-12 0 -44 -54.5t-63 -153t-31 -190.5z" />
<glyph unicode="e" horiz-adv-x="772" d="M57 360q0 133 49.5 257t159 214.5t258.5 96.5h6q92 0 141 -61q50 -62 56 -154q1 -13 1 -27q0 -79 -30 -199q-10 -39 -59 -49q-29 -10 -406 -10v-57q0 -268 175 -269q90 0 249 136l35 -80q-160 -182 -334 -183q-139 0 -220 102.5t-81 282.5zM240 514l358 31 q0 287 -139 287q-1 0 -2 -1q-76 -4 -133 -75q-66 -88 -84 -242z" />
<glyph unicode="f" horiz-adv-x="571" d="M-197 -418q-1 6 0 12q0 32 19 66q23 41 41 61l196 -92q12 0 28.5 26t36 109.5t30.5 210.5l43 568l20 270h-184l4 55l188 45l6 80q35 287 169.5 415t308.5 128q68 0 118 -53q1 -6 1 -13q0 -37 -21 -73q-10 -18 -24.5 -33.5t-24.5 -22.5l-8 -6l-203 97q-55 -20 -99.5 -124 t-56.5 -276l-10 -125l188 8q2 -2 4 -7t4.5 -18t2.5 -26l-17 -53l-188 4l-21 -283l-39 -518q-16 -215 -114.5 -350t-278.5 -135q-76 0 -119 53z" />
<glyph unicode="g" horiz-adv-x="870" d="M-74 -174q0 84 62 154q66 74 182 116q-6 25 -6 58q0 102 63 165q-115 70 -114 252q0 147 108.5 252t251.5 105q129 0 203 -47q16 29 33 51q61 74 129 84q11 2 21 2q39 0 71 -25q0 -31 -15 -75l-38 -78l-117 32q-25 -8 -41 -28q57 -63 57 -176q0 -154 -111.5 -271.5 t-267.5 -117.5q-51 0 -90 8q-16 -33 -23.5 -76t7.5 -59q23 -14 82 -25q23 -4 76 -13.5t98 -17.5t65 -14q45 -14 67.5 -22.5t49.5 -26t45 -41.5q35 -47 35 -133q0 -68 -35 -115t-104 -100q-109 -82 -303 -82q-72 0 -194 34.5t-167 77.5q-80 72 -80 152zM70 -133q0 -55 47 -98 q33 -31 128 -58.5t173 -38.5l80 -12q72 20 110 57q63 55 64 109q0 84 -51 106q-16 8 -222 50q-150 31 -186 47q-57 -25 -88 -54q-55 -47 -55 -108zM272 602v-21q0 -81 28 -143q32 -70 99 -76h11q65 0 135 72q78 80 78 208q0 76 -32 135q-34 62 -112 69h-7q-62 0 -125 -64 q-67 -67 -75 -180z" />
<glyph unicode="h" horiz-adv-x="1019" d="M111 227q0 135 69 289h2l60 903l-121 15l4 63l274 39l-8 -6l17 6l-74 -887q109 137 123 152q131 127 241 127q113 0 154 -64q30 -47 30 -131q0 -27 -3 -57l-64 -588l135 -31l-8 -69q-66 -8 -135 -8q-90 0 -125 45q-27 35 -27 103q0 20 2 44l54 514q1 7 0 14q0 62 -52 80 q-94 0 -174 -65q-16 -14 -149 -154l-49 -561h-125q-8 8 -17.5 30.5t-21.5 76.5t-12 120z" />
<glyph unicode="i" horiz-adv-x="530" d="M82 813l2 55l176 37q2 0 8 1t11 1q61 0 74 -41q9 -28 9 -85q0 -26 -2 -58l-49 -623l135 -30l-8 -70q-66 -8 -135 -8q-153 0 -153 156q0 17 2 36l59 611zM250 1325q29 29 65 29h4q41 -4 67 -38q24 -31 24 -72v-7q-4 -45 -35 -76q-29 -29 -65 -29q-2 0 -5 1q-39 4 -64 37 q-24 31 -24 73q0 49 33 82z" />
<glyph unicode="j" horiz-adv-x="520" d="M-184 -418q0 18 24 62l47 71l185 -86q12 0 28.5 26t36 109.5t29.5 210.5l59 820l-127 18l2 55l176 37q6 2 19 2q57 0 72 -41q10 -29 10 -88q0 -26 -2 -57l-47 -707q-16 -215 -114.5 -350t-279.5 -135q-75 0 -118 53zM264 1323q29 29 65 29h5q41 -4 66 -38q24 -31 24 -72 v-7q-4 -45 -35 -76q-29 -29 -65 -29h-5q-39 4 -64 38q-24 31 -24 73q0 49 33 82z" />
<glyph unicode="k" horiz-adv-x="903" d="M102 1432l4 63l275 41l-86 -979h31q70 113 151 199q145 172 293 172q82 0 115 -78q-8 -45 -31 -76t-66 -51l-94 68q-63 -23 -125 -76q-78 -63 -153 -158q78 -2 122 -36t80 -128l107 -305l119 14l-6 -77q-63 -49 -158 -50q-106 0 -137 138l-51 247q-27 115 -117 115h-76 l-35 -475h-151l110 1417z" />
<glyph unicode="l" horiz-adv-x="481" d="M102 1432l4 63l275 41l-107 -1438l136 -30l-9 -70q-55 -8 -125 -8q-92 0 -124 42q-26 34 -27 110q0 19 2 40l96 1235z" />
<glyph unicode="m" horiz-adv-x="1519" d="M102 809l2 57q246 45 258 49q16 2 26.5 -10t6.5 -26l-57 -265q12 4 35.5 34t59.5 76t67 77q131 127 227 127q84 0 117 -58.5t35 -177.5q45 63 90 109q131 127 227 127q102 0 139 -64q30 -47 30 -131q0 -27 -3 -57l-64 -588l136 -31l-9 -69q-66 -8 -135 -8q-90 0 -125 45 q-27 35 -27 103q0 20 3 44l53 514q4 35 -6 58.5t-23 29.5l-12 6q-76 0 -156 -65q-31 -25 -135 -140l-59 -575h-123q-27 31 -27 227q0 59 17.5 140.5t34.5 132.5l16 49q10 63 10 137q0 35 -9 58.5t-20 29.5l-10 6q-51 0 -82.5 -13t-81.5 -52q-72 -59 -163 -168l-58 -547h-123 q-55 63 -55 227q0 133 96 322l6 250z" />
<glyph unicode="n" horiz-adv-x="1048" d="M102 809l7 57q242 45 253 49q16 2 26.5 -10t6.5 -26l-55 -256q14 12 62.5 77.5t82.5 100.5q131 127 228 127q113 0 153 -64q30 -47 30 -131q0 -27 -3 -57l-64 -582l136 -31l-9 -69q-66 -8 -135 -8q-90 0 -125 45q-27 35 -27 104q0 20 3 43l53 508q1 7 1 14q0 62 -52 80 q-47 0 -79 -13t-81 -52q-53 -45 -147 -154l-60 -561h-123q-55 63 -55 227q0 133 96 322l6 250z" />
<glyph unicode="o" horiz-adv-x="897" d="M55 399q0 225 130 377t317 152q176 0 261 -88t85 -295q0 -225 -134 -397.5t-321 -172.5q-338 0 -338 424zM242 383q0 -139 40 -232.5t124 -93.5q109 0 184.5 145.5t75.5 354.5q0 131 -50.5 212t-134.5 81q-100 0 -169.5 -132t-69.5 -335z" />
<glyph unicode="p" horiz-adv-x="927" d="M-45 -451l4 72l129 27l94 1151l-135 14l6 57q225 41 238 45q16 2 26.5 -10t6.5 -26l-54 -254q12 10 61.5 75.5t84.5 100.5q131 127 223 127q106 0 167.5 -96.5t61.5 -286.5q0 -94 -49 -219t-88 -176q-37 -49 -62.5 -76t-87 -55.5t-137.5 -28.5q-90 0 -170 37l-28 -377 l139 -29l-4 -72h-426zM285 174q90 -102 182 -102q51 0 85 26.5t71 98.5q72 143 71.5 335.5t-86.5 247.5q-86 0 -164 -65q-27 -20 -131 -131z" />
<glyph unicode="q" horiz-adv-x="905" d="M66 406q0 182 83.5 313t198.5 184q53 25 123 25q37 0 209 -68q10 6 27.5 22.5t31 27t21.5 10.5q10 0 23.5 -4.5t19.5 -8.5l8 -4l-106 -1251l141 -31l-4 -72h-426l4 72l129 27l49 565q-152 -221 -262 -221q-113 0 -191.5 105.5t-78.5 308.5zM238 430q0 -250 102 -299 q8 -4 18 -4q37 0 107 48t141 128l35 408q-147 94 -262 125q-12 0 -45 -56.5t-64.5 -157t-31.5 -192.5z" />
<glyph unicode="r" horiz-adv-x="626" d="M88 809l6 57q195 45 207 49q16 2 25.5 -10t7.5 -26l-39 -242l6 6q86 174 141 225q4 2 17.5 14.5t16.5 14.5t13.5 10t15.5 9.5t14 6.5t17.5 6t19.5 2t26 1q53 0 84 -49q-4 -47 -25 -82q-8 -16 -23.5 -31.5t-25.5 -24.5l-10 -6l-97 49q-37 -6 -127 -174l-65 -614h-123 q-55 63 -55 227q0 133 96 322l-14 252z" />
<glyph unicode="s" horiz-adv-x="692" d="M20 174q35 31 70 45l72 19l63 -181q12 -16 68 -16q70 0 117 47q55 53 55 115q0 51 -33 89t-135 105q-111 72 -157 136.5t-46 154.5q0 53 29 102.5t63 71.5q92 66 228 66q111 0 167 -49.5t72 -153.5q-20 -25 -55 -39q-33 -14 -78 -18l-57 180q-18 12 -60 12 q-59 0 -112 -43q-53 -41 -53 -94q0 -49 32.5 -89t120.5 -95q113 -72 167 -141.5t54 -153.5q0 -131 -90 -199q-96 -70 -241 -70q-204 0 -261 199z" />
<glyph unicode="t" horiz-adv-x="577" d="M35 813l4 55l172 43l29 187l133 24l-17 -215l217 8q2 -2 4.5 -7t4.5 -18t2 -26l-17 -53l-217 4l-43 -590q-1 -9 0 -16q0 -78 53 -100q57 0 162 77l21 -55q-127 -143 -217 -143q-88 0 -142 73q-36 50 -36 161q0 34 4 73l49 518h-166z" />
<glyph unicode="u" horiz-adv-x="958" d="M59 844l4 55q147 27 201 27q51 0 75 -50q17 -37 17 -94q0 -19 -2 -41l-57 -514q-1 -8 -1 -15q0 -28 12 -52q15 -31 38 -39q74 0 170 78q23 18 111 127l69 589q35 12 64 13l59 -13q27 -34 27 -127q0 -36 -4 -81q-6 -59 -23.5 -136t-32.5 -125l-14 -45l-18 -284l127 -13 l-2 -57l-230 -45q-16 -2 -25.5 10.5t-7.5 26.5l35 223q-61 -102 -108 -149q-123 -125 -228 -125q-82 0 -139 75q-45 59 -45 163q0 32 4 69l62 530z" />
<glyph unicode="v" horiz-adv-x="835" d="M16 834l2 63q147 27 201 27q115 0 125 -209l39 -639q39 18 156 307q115 287 163 543q16 3 33 2l66 -10q23 -8 40 -17.5t23 -15.5l6 -6q-121 -340 -252 -590q-90 -174 -142 -244t-97 -70q-127 0 -141 146l-84 694z" />
<glyph unicode="w" horiz-adv-x="1247" d="M16 834l2 63q141 27 195 27q121 0 125 -209l45 -639q10 2 38 41t64.5 109.5t67.5 150.5q20 51 53 141q-18 147 -18 248q0 63 21.5 105t56.5 42q55 0 82 -18q47 -33 47 -100q0 -92 -60 -232l64 -487q12 6 37.5 61.5t101.5 245.5q104 262 168 543q11 3 24 2q25 0 58 -10 q51 -16 72 -44q-66 -262 -238 -589q-90 -172 -139 -241t-88 -69q-59 0 -85 33t-38 113l-35 205q-2 -6 -9 -21.5t-10 -19.5q-94 -180 -147 -245t-90 -65q-68 0 -101.5 35t-41.5 111l-84 694z" />
<glyph unicode="x" horiz-adv-x="770" d="M-31 45q2 35 29 72t53 49l66 -43q49 23 121 145q49 88 81 154l-122 387l-150 -16v73q12 6 31.5 17.5t71 28t90.5 16.5q49 -2 78.5 -53.5t64.5 -159.5l33 -105q68 166 145 246q66 74 133 74h6q28 0 55 -20q30 -22 44 -52q-2 -27 -25 -63q-10 -16 -24.5 -29.5t-22.5 -17.5 l-8 -5l-70 41q-51 -23 -123 -143q-33 -51 -77 -135l131 -414l147 37l4 -68q-10 -10 -26.5 -24t-64.5 -38t-89 -24q-90 2 -135 150l-62 192q-68 -174 -151 -264q-66 -78 -127 -78h-6l-56 19q-31 20 -45 51z" />
<glyph unicode="y" horiz-adv-x="909" d="M-156 -281q33 35 70 62l76 39l104 -193q76 33 180 187q47 70 91 145q-33 250 -108 525.5t-142 334.5l-95 -2l-4 60q104 51 168 51q102 0 152 -146q78 -250 115 -653q6 16 8 21q141 340 266 768h13l89 -13q20 -6 37 -15t23 -16l6 -6q-197 -530 -397 -886 q-248 -440 -443 -441q-55 0 -128 51t-81 127z" />
<glyph unicode="z" horiz-adv-x="753" d="M10 20l516 691q-193 127 -286 127l6 -136q-37 -31 -80 -38q-20 -6 -41 -8.5t-31 -0.5l-10 2q-9 30 -9 62.5t9 66.5q35 135 217 136q133 0 322 -62l2 8l86 64l59 -47l-166 -219l-352 -465q199 -141 297 -142l-23 152q37 31 80 39q20 6 41 8t31 0l10 -2q11 -33 11 -69.5 t-11 -77.5q-23 -80 -74 -107t-143 -27q-129 0 -317 76q-4 -4 -4 -6l-80 -70z" />
<glyph unicode="{" horiz-adv-x="806" d="M82 635q0 88 113 88q55 0 147 -66q47 23 70.5 103t38.5 272q43 532 335 533h35l-8 -64q-18 0 -47 -8q-127 -33 -156 -422q-25 -344 -188 -444q-14 -10 -16 -11q141 -139 90 -483q-27 -188 7 -294.5t87 -123.5q49 -12 86 -16l-10 -64h-72q-45 0 -89 21.5t-94.5 85 t-63.5 176.5t5 295q41 303 -14 373q-2 -2 -6 -2q-92 -25 -135 -25q-51 0 -83 20.5t-32 55.5z" />
<glyph unicode="|" horiz-adv-x="466" d="M176 -451v2077h131v-2077h-131z" />
<glyph unicode="}" horiz-adv-x="882" d="M53 -365l8 64q18 0 48 8q74 20 106.5 110.5t48.5 311.5q10 139 60.5 270t128.5 174l16 11q-80 78 -99.5 192.5t9.5 290.5q27 190 -7 293.5t-87 124.5q-47 16 -86 20l10 60h72q45 0 89 -21.5t94 -85t63.5 -176.5t-5.5 -295q-43 -295 15 -373h2q2 2 4 2q92 25 135 25 q51 0 83 -20.5t32 -55.5q0 -39 -36 -62.5t-83 -23.5t-152 62q-41 -23 -62.5 -102t-35.5 -271q-12 -166 -47 -277.5t-85 -164t-97.5 -72t-106.5 -19.5h-35z" />
<glyph unicode="&#xaa;" horiz-adv-x="942" d="M76 406q0 182 84 313t198 184q53 25 123 25q39 0 201 -66q10 6 27.5 21.5t30 26t20.5 10.5q10 0 23.5 -4.5t19.5 -8.5l8 -4l-68 -803l136 -30l-9 -70q-66 -8 -135 -8q-76 0 -111 40q-32 36 -33 92q0 6 1 13l6 82q-57 -88 -129 -161.5t-131 -73.5q-104 0 -183 109.5 t-79 312.5zM248 430q0 -268 92 -309q8 -4 18 -4q78 0 248 190l37 410q-152 92 -254 119q-12 0 -45 -56.5t-64.5 -157t-31.5 -192.5z" />
<glyph unicode="&#xad;" horiz-adv-x="647" d="M82 483l16 125h465l-16 -125h-465z" />
<glyph unicode="&#xb2;" horiz-adv-x="849" d="M6 66l363 296q66 59 96.5 91t63 85.5t32.5 100.5q0 61 -17.5 101t-48 55.5t-54 20.5t-56.5 5q-88 0 -219 -78l-35 54q37 37 88 69q96 61 234 62q139 0 206.5 -59.5t67.5 -190.5q0 -80 -43 -142.5t-125 -132.5q-156 -133 -334 -276l426 29l62 100l51 -25l-39 -231h-715z " />
<glyph unicode="&#xb3;" horiz-adv-x="856" d="M-66 -289q16 37 50 72q14 16 31.5 28.5t27.5 16.5l10 4l187 -133q143 29 232 133.5t89 249.5q0 94 -66.5 168t-160.5 90q-90 -20 -129 -31l-21 72q137 43 245 107.5t108 140.5q0 104 -44 149t-108 45q-88 0 -223 -78l-39 43q59 59 90 76q123 63 231 64q113 0 184.5 -60.5 t71.5 -187.5q0 -137 -194 -248q227 -78 227 -299q0 -119 -58.5 -222.5t-143.5 -166.5t-172 -100t-154 -37q-201 0 -271 104z" />
<glyph unicode="&#xb9;" horiz-adv-x="665" d="M88 0l8 68l135 30l60 711l-121 14l4 64l275 41l-62 -830l135 -30l-8 -68h-426z" />
<glyph unicode="&#xba;" horiz-adv-x="897" d="M55 399q0 225 130 377t317 152q176 0 261 -88t85 -295q0 -225 -134 -397.5t-321 -172.5q-338 0 -338 424zM242 383q0 -139 40 -232.5t124 -93.5q109 0 184.5 145.5t75.5 354.5q0 131 -50.5 212t-134.5 81q-100 0 -169.5 -132t-69.5 -335z" />
<glyph unicode="&#xc0;" horiz-adv-x="1187" d="M-106 0l6 72l125 32l532 1330h162l340 -1336v6l110 -32l-4 -72h-460l4 72l155 32l-98 435h-444l-166 -435l174 -32l-4 -72h-432zM313 1800q0 37 29 78q27 37 66 49q20 -16 103 -94t157 -150l71 -69q-2 -20 -12 -35q-6 -8 -12 -13t-10 -5l-5 -2q-352 214 -387 241z M358 635h385l-143 625z" />
<glyph unicode="&#xc1;" horiz-adv-x="1187" d="M-106 0l6 72l125 32l532 1330h162l340 -1336v6l110 -32l-4 -72h-460l4 72l155 32l-98 435h-444l-166 -435l174 -32l-4 -72h-432zM358 635h385l-143 625zM567 1608q225 283 264 321q37 -6 68 -39q14 -16 24.5 -33.5t12.5 -25.5l2 -10l-326 -265q-14 2 -28 17z" />
<glyph unicode="&#xc2;" horiz-adv-x="1187" d="M-106 0l6 72l125 32l532 1330h162l340 -1336v6l110 -32l-4 -72h-460l4 72l155 32l-98 435h-444l-166 -435l174 -32l-4 -72h-432zM358 635h385l-143 625zM418 1608q164 186 239 276h70q27 -41 65.5 -111.5t63.5 -121.5l27 -49q-4 -16 -22.5 -31t-45.5 -12l-139 186 l-213 -189q-14 2 -29 17z" />
<glyph unicode="&#xc4;" horiz-adv-x="1187" d="M-106 0l6 72l125 32l532 1330h162l340 -1336v6l110 -32l-4 -72h-460l4 72l155 32l-98 435h-444l-166 -435l174 -32l-4 -72h-432zM358 635h385l-143 625zM416 1677q4 39 29.5 64.5t58.5 23.5q35 -4 57.5 -31.5t20.5 -64.5q-4 -39 -30 -64.5t-58 -23.5q-35 2 -57.5 30.5 t-20.5 65.5zM696 1677q2 39 28 64.5t58 23.5q35 -2 58.5 -30.5t21.5 -65.5q-4 -39 -30.5 -64.5t-59.5 -23.5q-35 4 -56.5 31.5t-19.5 64.5z" />
<glyph unicode="&#xc8;" horiz-adv-x="1122" d="M0 0l4 66l158 36l92 1229l-129 37l4 66h872l33 -332l-67 -12l-86 245l-447 27l-45 -612l334 12l41 192h80l-35 -497h-66l-20 202l-338 13l-45 -596l557 26l86 246l68 -12l-33 -336h-1018zM369 1800q0 37 28 78q27 37 66 49q20 -16 103 -94t155 -150l74 -69 q-2 -20 -13 -35q-6 -8 -12 -13t-10 -5l-4 -2q-352 214 -387 241z" />
<glyph unicode="&#xc9;" horiz-adv-x="1122" d="M0 0l4 66l158 36l92 1229l-129 37l4 66h872l33 -332l-67 -12l-86 245l-447 27l-45 -612l334 12l41 192h80l-35 -497h-66l-20 202l-338 13l-45 -596l557 26l86 246l68 -12l-33 -336h-1018zM520 1608q225 283 264 321q37 -6 68 -39q14 -16 24.5 -33.5t12.5 -25.5l2 -10 l-326 -265q-14 2 -28 17z" />
<glyph unicode="&#xca;" horiz-adv-x="1122" d="M0 0l4 66l158 36l92 1229l-129 37l4 66h872l33 -332l-67 -12l-86 245l-447 27l-45 -612l334 12l41 192h80l-35 -497h-66l-20 202l-338 13l-45 -596l557 26l86 246l68 -12l-33 -336h-1018zM395 1608q164 186 240 276h70q27 -41 65.5 -111.5t65.5 -121.5l24 -49 q-4 -16 -22.5 -31t-44.5 -12l-140 186l-213 -189q-14 2 -28 17z" />
<glyph unicode="&#xcb;" horiz-adv-x="1122" d="M0 0l4 66l158 36l92 1229l-129 37l4 66h872l33 -332l-67 -12l-86 245l-447 27l-45 -612l334 12l41 192h80l-35 -497h-66l-20 202l-338 13l-45 -596l557 26l86 246l68 -12l-33 -336h-1018zM432 1677q4 39 29.5 64.5t58.5 23.5q35 -4 57.5 -31.5t20.5 -64.5 q-4 -39 -29.5 -64.5t-58.5 -23.5q-35 2 -57.5 30.5t-20.5 65.5zM713 1677q2 39 27.5 64.5t58.5 23.5q35 -2 58.5 -30.5t21.5 -65.5q-4 -39 -31 -64.5t-60 -23.5q-35 4 -56 31.5t-19 64.5z" />
<glyph unicode="&#xcc;" d="M0 0l4 66l158 36l92 1229l-129 37l4 66h463l-4 -66l-156 -37h-2l-86 -1229l156 -30l-8 -72h-492zM43 1800q0 37 29 78q27 37 65 49q20 -16 103.5 -94t156.5 -150l72 -69q-2 -20 -12 -35q-6 -8 -12.5 -13t-10.5 -5l-4 -2q-352 214 -387 241z" />
<glyph unicode="&#xcd;" d="M0 0l4 66l158 36l92 1229l-129 37l4 66h463l-4 -66l-156 -37h-2l-86 -1229l156 -30l-8 -72h-492zM270 1608q225 283 265 321q37 -6 67 -39q14 -16 24.5 -33.5t12.5 -25.5l2 -10l-326 -265q-14 2 -28 17z" />
<glyph unicode="&#xce;" d="M0 0l4 66l158 36l92 1229l-129 37l4 66h463l-4 -66l-156 -37h-2l-86 -1229l156 -30l-8 -72h-492zM131 1608q164 186 240 276h69q27 -41 66 -111.5t63 -121.5l27 -49q-4 -16 -22.5 -31t-45.5 -12l-139 186l-213 -189q-14 2 -29 17z" />
<glyph unicode="&#xcf;" d="M0 0l4 66l158 36l92 1229l-129 37l4 66h463l-4 -66l-156 -37h-2l-86 -1229l156 -30l-8 -72h-492zM152 1677q4 39 29.5 64.5t58.5 23.5q35 -4 57 -31.5t20 -64.5q-4 -39 -29.5 -64.5t-58.5 -23.5q-35 2 -57 30.5t-20 65.5zM432 1677q2 39 27.5 64.5t58.5 23.5 q35 -2 58.5 -30.5t21.5 -65.5q-4 -39 -30.5 -64.5t-59.5 -23.5q-35 4 -56.5 31.5t-19.5 64.5z" />
<glyph unicode="&#xd2;" horiz-adv-x="1310" d="M41 694q2 328 188.5 551t483.5 223q578 0 577 -653q0 -360 -195.5 -600t-492.5 -240q-86 0 -165 22.5t-152.5 77t-127 135.5t-85 204.5t-31.5 279.5zM262 662q0 -319 99.5 -451.5t279.5 -132.5q113 0 202 72.5t139 188.5t75.5 245t25.5 256q0 268 -101 403t-292 135 q-186 0 -307 -188t-121 -528zM442 1800q0 37 29 78q27 37 66 49q20 -16 103 -94t155 -150l73 -69q-2 -20 -12 -35q-6 -8 -12 -13t-10 -5l-5 -2q-352 214 -387 241z" />
<glyph unicode="&#xd3;" horiz-adv-x="1310" d="M41 694q2 328 188.5 551t483.5 223q578 0 577 -653q0 -360 -195.5 -600t-492.5 -240q-86 0 -165 22.5t-152.5 77t-127 135.5t-85 204.5t-31.5 279.5zM262 662q0 -319 99.5 -451.5t279.5 -132.5q113 0 202 72.5t139 188.5t75.5 245t25.5 256q0 268 -101 403t-292 135 q-186 0 -307 -188t-121 -528zM610 1608q225 283 264 321q37 -6 68 -39q14 -16 24.5 -33.5t12.5 -25.5l2 -10l-326 -265q-14 2 -28 17z" />
<glyph unicode="&#xd4;" horiz-adv-x="1310" d="M41 694q2 328 188.5 551t483.5 223q578 0 577 -653q0 -360 -195.5 -600t-492.5 -240q-86 0 -165 22.5t-152.5 77t-127 135.5t-85 204.5t-31.5 279.5zM262 662q0 -319 99.5 -451.5t279.5 -132.5q113 0 202 72.5t139 188.5t75.5 245t25.5 256q0 268 -101 403t-292 135 q-186 0 -307 -188t-121 -528zM510 1608q164 186 240 276h69q27 -41 66 -111.5t65 -121.5l25 -49q-4 -16 -22.5 -31t-45.5 -12l-139 186l-213 -189q-14 2 -29 17z" />
<glyph unicode="&#xd6;" horiz-adv-x="1310" d="M41 694q2 328 188.5 551t483.5 223q578 0 577 -653q0 -360 -195.5 -600t-492.5 -240q-86 0 -165 22.5t-152.5 77t-127 135.5t-85 204.5t-31.5 279.5zM262 662q0 -319 99.5 -451.5t279.5 -132.5q113 0 202 72.5t139 188.5t75.5 245t25.5 256q0 268 -101 403t-292 135 q-186 0 -307 -188t-121 -528zM512 1677q4 39 29.5 64.5t58.5 23.5q35 -4 57.5 -31.5t20.5 -64.5q-4 -39 -29.5 -64.5t-58.5 -23.5q-35 2 -57.5 30.5t-20.5 65.5zM793 1677q2 39 27.5 64.5t58.5 23.5q35 -2 58.5 -30.5t20.5 -65.5q-4 -39 -30.5 -64.5t-59.5 -23.5 q-35 4 -56 31.5t-19 64.5z" />
<glyph unicode="&#xd9;" horiz-adv-x="1255" d="M61 1368l5 66h464l-4 -66l-155 -37l-54 -844q-4 -201 62.5 -297t230.5 -96q170 0 250 103q80 100 101 311q27 283 57 823l-129 37l4 66h414l-4 -66l-146 -41h-2l-80 -827q-31 -291 -127 -387q-139 -139 -362 -140q-231 0 -348 111q-125 115 -111 371l63 876zM393 1800 q0 37 29 78q27 37 65 49q20 -16 103.5 -94t154.5 -150l74 -69q-2 -20 -12 -35q-6 -8 -12.5 -13t-10.5 -5l-4 -2q-352 214 -387 241z" />
<glyph unicode="&#xda;" horiz-adv-x="1255" d="M61 1368l5 66h464l-4 -66l-155 -37l-54 -844q-4 -201 62.5 -297t230.5 -96q170 0 250 103q80 100 101 311q27 283 57 823l-129 37l4 66h414l-4 -66l-146 -41h-2l-80 -827q-31 -291 -127 -387q-139 -139 -362 -140q-231 0 -348 111q-125 115 -111 371l63 876zM606 1608 q225 283 264 321q37 -6 68 -39q14 -16 24.5 -33.5t12.5 -25.5l2 -10l-326 -265q-14 2 -28 17z" />
<glyph unicode="&#xdb;" horiz-adv-x="1255" d="M61 1368l5 66h464l-4 -66l-155 -37l-54 -844q-4 -201 62.5 -297t230.5 -96q170 0 250 103q80 100 101 311q27 283 57 823l-129 37l4 66h414l-4 -66l-146 -41h-2l-80 -827q-31 -291 -127 -387q-139 -139 -362 -140q-231 0 -348 111q-125 115 -111 371l63 876zM492 1608 q164 186 239 276h70q27 -41 65.5 -111.5t63.5 -121.5l26 -49q-4 -16 -22.5 -31t-44.5 -12l-139 186l-213 -189q-14 2 -29 17z" />
<glyph unicode="&#xdc;" horiz-adv-x="1255" d="M61 1368l5 66h464l-4 -66l-155 -37l-54 -844q-4 -201 62.5 -297t230.5 -96q170 0 250 103q80 100 101 311q27 283 57 823l-129 37l4 66h414l-4 -66l-146 -41h-2l-80 -827q-31 -291 -127 -387q-139 -139 -362 -140q-231 0 -348 111q-125 115 -111 371l63 876zM494 1677 q4 39 29.5 64.5t58.5 23.5q35 -4 57.5 -31.5t19.5 -64.5q-4 -39 -29.5 -64.5t-58.5 -23.5q-35 2 -57 30.5t-20 65.5zM774 1677q2 39 27.5 64.5t58.5 23.5q35 -2 58.5 -30.5t21.5 -65.5q-4 -39 -30.5 -64.5t-59.5 -23.5q-35 4 -56.5 31.5t-19.5 64.5z" />
<glyph unicode="&#xe0;" horiz-adv-x="942" d="M76 406q0 182 84 313t198 184q53 25 123 25q39 0 201 -66q10 6 27.5 21.5t30 26t20.5 10.5q10 0 23.5 -4.5t19.5 -8.5l8 -4l-68 -803l136 -30l-9 -70q-66 -8 -135 -8q-76 0 -111.5 40t-31.5 105l6 82q-57 -88 -129 -161.5t-131 -73.5q-104 0 -183 109.5t-79 312.5z M231 1286q0 37 29 78q27 37 66 49q20 -16 103 -94t157 -148l71 -71q-2 -20 -12 -35q-6 -8 -12 -13t-10 -8h-5q-352 215 -387 242zM248 430q0 -268 92 -309q8 -4 18 -4q78 0 248 190l37 410q-152 92 -254 119q-12 0 -45 -56.5t-64.5 -157t-31.5 -192.5z" />
<glyph unicode="&#xe1;" horiz-adv-x="942" d="M76 406q0 182 84 313t198 184q53 25 123 25q39 0 201 -66q10 6 27.5 21.5t30 26t20.5 10.5q10 0 23.5 -4.5t19.5 -8.5l8 -4l-68 -803l136 -30l-9 -70q-66 -8 -135 -8q-76 0 -111.5 40t-31.5 105l6 82q-57 -88 -129 -161.5t-131 -73.5q-104 0 -183 109.5t-79 312.5z M248 430q0 -268 92 -309q8 -4 18 -4q78 0 248 190l37 410q-152 92 -254 119q-12 0 -45 -56.5t-64.5 -157t-31.5 -192.5zM414 1092q225 283 264 321q37 -6 67 -39q14 -16 24.5 -33.5t12.5 -25.5l2 -10l-325 -265q-14 2 -29 17z" />
<glyph unicode="&#xe2;" horiz-adv-x="942" d="M76 406q0 182 84 313t198 184q53 25 123 25q39 0 201 -66q10 6 27.5 21.5t30 26t20.5 10.5q10 0 23.5 -4.5t19.5 -8.5l8 -4l-68 -803l136 -30l-9 -70q-66 -8 -135 -8q-76 0 -111.5 40t-31.5 105l6 82q-57 -88 -129 -161.5t-131 -73.5q-104 0 -183 109.5t-79 312.5z M248 430q0 -268 92 -309q8 -4 18 -4q78 0 248 190l37 410q-152 92 -254 119q-12 0 -45 -56.5t-64.5 -157t-31.5 -192.5zM301 1092q164 186 240 276h69q27 -41 66 -111.5t65 -121.5l25 -50q-4 -16 -22.5 -30.5t-45.5 -12.5l-139 187l-213 -189q-14 2 -29 17z" />
<glyph unicode="&#xe4;" horiz-adv-x="942" d="M76 406q0 182 84 313t198 184q53 25 123 25q39 0 201 -66q10 6 27.5 21.5t30 26t20.5 10.5q10 0 23.5 -4.5t19.5 -8.5l8 -4l-68 -803l136 -30l-9 -70q-66 -8 -135 -8q-76 0 -111.5 40t-31.5 105l6 82q-57 -88 -129 -161.5t-131 -73.5q-104 0 -183 109.5t-79 312.5z M248 430q0 -268 92 -309q8 -4 18 -4q78 0 248 190l37 410q-152 92 -254 119q-12 0 -45 -56.5t-64.5 -157t-31.5 -192.5zM344 1161q4 39 29.5 64.5t58.5 23.5q35 -4 57.5 -31.5t20.5 -64.5q-4 -39 -29.5 -64.5t-58.5 -23.5q-35 2 -57.5 30.5t-20.5 65.5zM625 1161 q2 39 27.5 64.5t58.5 23.5q35 -2 58.5 -30.5t21.5 -65.5q-4 -39 -31 -64.5t-60 -23.5q-35 4 -56 31.5t-19 64.5z" />
<glyph unicode="&#xe8;" horiz-adv-x="772" d="M57 360q0 133 49.5 257t159 214.5t258.5 96.5q96 2 146.5 -60.5t56.5 -154.5q6 -84 -29 -226q-10 -39 -59 -49q-29 -10 -406 -10v-57q0 -268 175 -269q90 0 249 136l35 -80q-160 -182 -334 -183q-139 0 -220 102.5t-81 282.5zM199 1286q0 37 28 78q27 37 66 49 q20 -16 103 -94t157 -148l72 -71q-2 -20 -13 -35q-6 -8 -12 -13t-10 -8h-4q-352 215 -387 242zM240 514l358 31q0 289 -141 286q-76 -4 -133 -75q-66 -88 -84 -242z" />
<glyph unicode="&#xe9;" horiz-adv-x="772" d="M57 360q0 133 49.5 257t159 214.5t258.5 96.5q96 2 146.5 -60.5t56.5 -154.5q6 -84 -29 -226q-10 -39 -59 -49q-29 -10 -406 -10v-57q0 -268 175 -269q90 0 249 136l35 -80q-160 -182 -334 -183q-139 0 -220 102.5t-81 282.5zM240 514l358 31q0 289 -141 286 q-76 -4 -133 -75q-66 -88 -84 -242zM371 1092q225 283 264 321q37 -6 67 -39q14 -16 24.5 -33.5t12.5 -25.5l2 -10l-325 -265q-14 2 -29 17z" />
<glyph unicode="&#xea;" horiz-adv-x="772" d="M57 360q0 133 49.5 257t159 214.5t258.5 96.5q96 2 146.5 -60.5t56.5 -154.5q6 -84 -29 -226q-10 -39 -59 -49q-29 -10 -406 -10v-57q0 -268 175 -269q90 0 249 136l35 -80q-160 -182 -334 -183q-139 0 -220 102.5t-81 282.5zM240 514l358 31q0 289 -141 286 q-76 -4 -133 -75q-66 -88 -84 -242zM264 1092q164 186 240 276h69q27 -41 66 -111.5t66 -121.5l24 -50q-4 -16 -22.5 -30.5t-44.5 -12.5l-140 187l-213 -189q-14 2 -28 17z" />
<glyph unicode="&#xeb;" horiz-adv-x="772" d="M57 360q0 133 49.5 257t159 214.5t258.5 96.5q96 2 146.5 -60.5t56.5 -154.5q6 -84 -29 -226q-10 -39 -59 -49q-29 -10 -406 -10v-57q0 -268 175 -269q90 0 249 136l35 -80q-160 -182 -334 -183q-139 0 -220 102.5t-81 282.5zM240 514l358 31q0 289 -141 286 q-76 -4 -133 -75q-66 -88 -84 -242zM270 1161q4 39 30 64.5t58 23.5q35 -4 57.5 -31.5t20.5 -64.5q-4 -39 -29.5 -64.5t-58.5 -23.5q-35 2 -57.5 30.5t-20.5 65.5zM551 1161q2 39 27.5 64.5t58.5 23.5q35 -2 58.5 -30.5t21.5 -65.5q-4 -39 -31 -64.5t-59 -23.5 q-35 4 -56.5 31.5t-19.5 64.5z" />
<glyph unicode="&#xec;" horiz-adv-x="530" d="M-23 1286q0 37 29 78q27 37 66 49q20 -16 103 -94t157 -148l71 -71q-2 -20 -12 -35q-6 -8 -12 -13t-10 -8h-4q-353 215 -388 242zM82 813l2 55l176 37q2 0 8 1t11 1q61 0 74.5 -41t6.5 -143l-49 -623l135 -30l-8 -70q-66 -8 -135 -8q-170 0 -151 192l59 611z" />
<glyph unicode="&#xed;" horiz-adv-x="530" d="M82 813l2 55l176 37q2 0 8 1t11 1q61 0 74.5 -41t6.5 -143l-49 -623l135 -30l-8 -70q-66 -8 -135 -8q-170 0 -151 192l59 611zM240 1092q225 283 264 321q37 -6 67 -39q14 -16 24.5 -33.5t12.5 -25.5l2 -10l-325 -265q-14 2 -29 17z" />
<glyph unicode="&#xee;" horiz-adv-x="530" d="M41 1092q164 186 240 276h69q27 -41 66 -111.5t63 -121.5l27 -50q-4 -16 -22.5 -30.5t-45.5 -12.5l-139 187l-213 -189q-14 2 -29 17zM82 813l2 55l176 37q2 0 8 1t11 1q61 0 74.5 -41t6.5 -143l-49 -623l135 -30l-8 -70q-66 -8 -135 -8q-170 0 -151 192l59 611z" />
<glyph unicode="&#xef;" horiz-adv-x="530" d="M59 1161q4 39 30 64.5t58 23.5q35 -4 57.5 -31.5t20.5 -64.5q-4 -39 -29.5 -64.5t-58.5 -23.5q-35 2 -57.5 30.5t-20.5 65.5zM82 813l2 55l176 37q2 0 8 1t11 1q61 0 74.5 -41t6.5 -143l-49 -623l135 -30l-8 -70q-66 -8 -135 -8q-170 0 -151 192l59 611zM340 1161 q2 39 27.5 64.5t58.5 23.5q35 -2 58.5 -30.5t21.5 -65.5q-4 -39 -30.5 -64.5t-59.5 -23.5q-35 4 -56.5 31.5t-19.5 64.5z" />
<glyph unicode="&#xf2;" horiz-adv-x="897" d="M55 399q0 225 130 377t317 152q176 0 261 -88t85 -295q0 -225 -134 -397.5t-321 -172.5q-338 0 -338 424zM225 1286q0 37 29 78q27 37 65 49q20 -16 103.5 -94t155.5 -148l73 -71q-2 -20 -12 -35q-6 -8 -12 -13t-11 -8h-4q-352 215 -387 242zM242 383q0 -139 40 -232.5 t124 -93.5q109 0 184.5 145.5t75.5 354.5q0 131 -50.5 212t-134.5 81q-100 0 -169.5 -132t-69.5 -335z" />
<glyph unicode="&#xf3;" horiz-adv-x="897" d="M55 399q0 225 130 377t317 152q176 0 261 -88t85 -295q0 -225 -134 -397.5t-321 -172.5q-338 0 -338 424zM242 383q0 -139 40 -232.5t124 -93.5q109 0 184.5 145.5t75.5 354.5q0 131 -50.5 212t-134.5 81q-100 0 -169.5 -132t-69.5 -335zM381 1092q225 283 264 321 q37 -6 68 -39q14 -16 24.5 -33.5t12.5 -25.5l2 -10l-326 -265q-14 2 -29 17z" />
<glyph unicode="&#xf4;" horiz-adv-x="897" d="M55 399q0 225 130 377t317 152q176 0 261 -88t85 -295q0 -225 -134 -397.5t-321 -172.5q-338 0 -338 424zM242 383q0 -139 40 -232.5t124 -93.5q109 0 184.5 145.5t75.5 354.5q0 131 -50.5 212t-134.5 81q-100 0 -169.5 -132t-69.5 -335zM285 1092q164 186 239 276h70 q27 -41 65.5 -111.5t65.5 -121.5l25 -50q-4 -16 -22.5 -30.5t-45.5 -12.5l-139 187l-213 -189q-14 2 -29 17z" />
<glyph unicode="&#xf6;" horiz-adv-x="897" d="M55 399q0 225 130 377t317 152q176 0 261 -88t85 -295q0 -225 -134 -397.5t-321 -172.5q-338 0 -338 424zM242 383q0 -139 40 -232.5t124 -93.5q109 0 184.5 145.5t75.5 354.5q0 131 -50.5 212t-134.5 81q-100 0 -169.5 -132t-69.5 -335zM297 1161q4 39 29.5 64.5 t58.5 23.5q35 -4 57.5 -31.5t20.5 -64.5q-4 -39 -29.5 -64.5t-58.5 -23.5q-35 2 -57.5 30.5t-20.5 65.5zM578 1161q2 39 27.5 64.5t58.5 23.5q35 -2 58 -30.5t21 -65.5q-4 -39 -30.5 -64.5t-59.5 -23.5q-35 4 -56 31.5t-19 64.5z" />
<glyph unicode="&#xf9;" horiz-adv-x="958" d="M59 844l4 55q147 27 201 27q51 0 74.5 -50.5t15.5 -134.5l-57 -514q-4 -37 11.5 -67.5t37.5 -38.5q74 0 170 78q23 18 111 127l69 589q35 12 64 13l59 -13q37 -47 23 -208q-6 -59 -23.5 -136t-32.5 -125l-14 -45l-18 -284l127 -13l-2 -57l-230 -45q-16 -2 -25.5 10.5 t-7.5 26.5l35 223q-61 -102 -108 -149q-123 -125 -228 -125q-82 0 -139 75q-59 78 -41 232l62 530zM186 1286q0 37 29 78q27 37 66 49q20 -16 103 -94t157 -148l71 -71q-2 -20 -12 -35q-6 -8 -12 -13t-10 -8h-5q-352 215 -387 242z" />
<glyph unicode="&#xfa;" horiz-adv-x="958" d="M59 844l4 55q147 27 201 27q51 0 74.5 -50.5t15.5 -134.5l-57 -514q-4 -37 11.5 -67.5t37.5 -38.5q74 0 170 78q23 18 111 127l69 589q35 12 64 13l59 -13q37 -47 23 -208q-6 -59 -23.5 -136t-32.5 -125l-14 -45l-18 -284l127 -13l-2 -57l-230 -45q-16 -2 -25.5 10.5 t-7.5 26.5l35 223q-61 -102 -108 -149q-123 -125 -228 -125q-82 0 -139 75q-59 78 -41 232l62 530zM434 1092q225 283 264 321q37 -6 68 -39q14 -16 24.5 -33.5t12.5 -25.5l2 -10l-326 -265q-14 2 -28 17z" />
<glyph unicode="&#xfb;" horiz-adv-x="958" d="M59 844l4 55q147 27 201 27q51 0 74.5 -50.5t15.5 -134.5l-57 -514q-4 -37 11.5 -67.5t37.5 -38.5q74 0 170 78q23 18 111 127l69 589q35 12 64 13l59 -13q37 -47 23 -208q-6 -59 -23.5 -136t-32.5 -125l-14 -45l-18 -284l127 -13l-2 -57l-230 -45q-16 -2 -25.5 10.5 t-7.5 26.5l35 223q-61 -102 -108 -149q-123 -125 -228 -125q-82 0 -139 75q-59 78 -41 232l62 530zM295 1092q164 186 240 276h69q27 -41 66 -111.5t63 -121.5l27 -50q-4 -16 -22.5 -30.5t-45.5 -12.5l-139 187l-213 -189q-14 2 -29 17z" />
<glyph unicode="&#xfc;" horiz-adv-x="958" d="M59 844l4 55q147 27 201 27q51 0 74.5 -50.5t15.5 -134.5l-57 -514q-4 -37 11.5 -67.5t37.5 -38.5q74 0 170 78q23 18 111 127l69 589q35 12 64 13l59 -13q37 -47 23 -208q-6 -59 -23.5 -136t-32.5 -125l-14 -45l-18 -284l127 -13l-2 -57l-230 -45q-16 -2 -25.5 10.5 t-7.5 26.5l35 223q-61 -102 -108 -149q-123 -125 -228 -125q-82 0 -139 75q-59 78 -41 232l62 530zM311 1161q4 39 30 64.5t58 23.5q35 -4 57.5 -31.5t20.5 -64.5q-4 -39 -29.5 -64.5t-58.5 -23.5q-35 2 -57.5 30.5t-20.5 65.5zM592 1161q2 39 27.5 64.5t58.5 23.5 q35 -2 58.5 -30.5t21.5 -65.5q-4 -39 -31 -64.5t-59 -23.5q-35 4 -56.5 31.5t-19.5 64.5z" />
<glyph unicode="&#x152;" horiz-adv-x="2433" d="M1311 0l4 66l158 36l92 1229l-129 37l4 66h872l33 -332l-67 -12l-86 245l-447 27l-45 -612l334 12l41 192h80l-35 -497h-66l-20 202l-338 13l-45 -596l557 26l86 246l68 -12l-33 -336h-1018zM41 694q2 328 188.5 551t483.5 223q578 0 577 -653q0 -360 -195.5 -600 t-492.5 -240q-86 0 -165 22.5t-152.5 77t-127 135.5t-85 204.5t-31.5 279.5zM262 662q0 -319 99.5 -451.5t279.5 -132.5q113 0 202 72.5t139 188.5t75.5 245t25.5 256q0 268 -101 403t-292 135q-186 0 -307 -188t-121 -528z" />
<glyph unicode="&#x153;" horiz-adv-x="1669" d="M954 360q0 133 49.5 257t159 214.5t258.5 96.5h6q92 0 141 -61q50 -62 56 -154q1 -13 1 -27q0 -79 -30 -199q-10 -39 -59 -49q-29 -10 -406 -10v-57q0 -268 175 -269q90 0 249 136l35 -80q-160 -182 -334 -183q-139 0 -220 102.5t-81 282.5zM1137 514l358 31 q0 287 -139 287q-1 0 -2 -1q-76 -4 -133 -75q-66 -88 -84 -242zM55 399q0 225 130 377t317 152q176 0 261 -88t85 -295q0 -225 -134 -397.5t-321 -172.5q-338 0 -338 424zM242 383q0 -139 40 -232.5t124 -93.5q109 0 184.5 145.5t75.5 354.5q0 131 -50.5 212t-134.5 81 q-100 0 -169.5 -132t-69.5 -335z" />
<glyph unicode="&#x2000;" horiz-adv-x="964" />
<glyph unicode="&#x2001;" horiz-adv-x="1929" />
<glyph unicode="&#x2002;" horiz-adv-x="964" />
<glyph unicode="&#x2003;" horiz-adv-x="1929" />
<glyph unicode="&#x2004;" horiz-adv-x="643" />
<glyph unicode="&#x2005;" horiz-adv-x="481" />
<glyph unicode="&#x2006;" horiz-adv-x="321" />
<glyph unicode="&#x2007;" horiz-adv-x="321" />
<glyph unicode="&#x2008;" horiz-adv-x="239" />
<glyph unicode="&#x2009;" horiz-adv-x="385" />
<glyph unicode="&#x200a;" horiz-adv-x="106" />
<glyph unicode="&#x2010;" horiz-adv-x="647" d="M82 483l16 125h465l-16 -125h-465z" />
<glyph unicode="&#x2011;" horiz-adv-x="647" d="M82 483l16 125h465l-16 -125h-465z" />
<glyph unicode="&#x2012;" horiz-adv-x="647" d="M82 483l16 125h465l-16 -125h-465z" />
<glyph unicode="&#x2013;" horiz-adv-x="968" d="M82 483l16 125h774l-16 -125h-774z" />
<glyph unicode="&#x2014;" horiz-adv-x="1728" d="M82 483l16 125h1547l-17 -125h-1546z" />
<glyph unicode="&#x2018;" horiz-adv-x="413" d="M141 1196q0 57 17 102q18 49 80.5 139.5t91.5 106.5l49 -10l-115 -234q80 -33 80 -100q0 -49 -24.5 -75.5t-65.5 -26.5q-47 0 -80 26.5t-33 71.5z" />
<glyph unicode="&#x2019;" horiz-adv-x="354" d="M135 1098l115 233q-80 33 -80 101q0 49 24.5 75.5t65.5 26.5q47 0 80 -26.5t33 -71.5q0 -57 -17 -103q-18 -49 -80.5 -139t-91.5 -107z" />
<glyph unicode="&#x201c;" horiz-adv-x="714" d="M141 1196q0 57 17 102q18 49 80.5 139.5t91.5 106.5l51 -10l-117 -234q82 -33 82 -100q0 -49 -25.5 -75.5t-66.5 -26.5q-47 0 -80 26.5t-33 71.5zM440 1196q0 51 19 102q18 49 80.5 139.5t91.5 106.5l49 -10l-115 -234q80 -33 80 -100q0 -49 -24.5 -75.5t-65.5 -26.5 q-47 0 -81 26.5t-34 71.5z" />
<glyph unicode="&#x201d;" horiz-adv-x="655" d="M135 1098l115 233q-80 33 -80 101q0 49 24.5 75.5t65.5 26.5q47 0 81 -26.5t34 -71.5q0 -51 -19 -103q-18 -49 -80.5 -139t-91.5 -107zM434 1098l117 233q-82 33 -82 101q0 49 25.5 75.5t66.5 26.5q47 0 80 -26.5t33 -71.5q0 -57 -17 -103q-18 -49 -80.5 -139t-91.5 -107 z" />
<glyph unicode="&#x2026;" horiz-adv-x="1361" d="M45 104q2 51 38 86t79 31q47 -4 77.5 -42t26.5 -87q-4 -51 -38.5 -86t-80.5 -31q-45 2 -75.5 41t-26.5 88zM508 104q2 51 38 86t79 31q47 -4 77.5 -42t26.5 -87q-4 -51 -39 -86t-80 -31q-45 2 -75.5 41t-26.5 88zM971 104q2 51 37.5 86t78.5 31q47 -4 78 -42t27 -87 q-4 -51 -39 -86t-80 -31q-45 2 -75.5 41t-26.5 88z" />
<glyph unicode="&#x202f;" horiz-adv-x="385" />
<glyph unicode="&#x205f;" horiz-adv-x="481" />
<glyph unicode="&#x2122;" horiz-adv-x="2844" d="M1166 0l4 72l158 28l110 1217l-158 45l7 72h419l275 -1117l473 1117h401l-4 -72l-161 -43h-3l-73 -1217l147 -30l-4 -72h-489l4 72l155 30l93 1215l-564 -1325h-63l-342 1325l-98 -1219l4 4l143 -30l-4 -72h-430zM20 1100l50 334h1104v-109h-3l-4 -225l-67 -13l-53 248 l-340 27l-95 -1260l129 -36l-4 -66h-440l4 66l133 36l88 1229l2 31l-338 -29l-98 -246z" />
<glyph unicode="&#xe000;" horiz-adv-x="930" d="M0 930h930v-930h-930v930z" />
<glyph unicode="&#xfb01;" horiz-adv-x="995" d="M-211 -418q6 29 31 72l47 72l184 -86q12 0 29.5 25.5t37 109.5t27.5 211l62 827h-184l4 55l188 47l6 78q31 326 234 473q94 70 225 70q76 0 133 -45t90 -107q-4 -53 -41 -81q-16 -12 -37.5 -19.5t-36.5 -9.5h-14l-141 168q-55 0 -113 -45q-117 -94 -139 -365l-10 -131 l391 14q57 0 72.5 -44t9.5 -140l-49 -631l139 -30l-8 -70h-187q-53 0 -82.5 52t-21.5 132l61 621l-331 18l-58 -798q-16 -150 -56 -252.5t-98.5 -153.5t-120 -71.5t-138.5 -20.5q-29 0 -60 16t-45 39z" />
<glyph unicode="&#xfb02;" horiz-adv-x="1079" d="M-207 -418q0 18 25 62l47 71l184 -86q12 0 28.5 26t36 109.5t29.5 210.5l64 838h-184l4 55l188 47l6 78q18 324 234 473q100 70 225 70q78 0 149 -43l152 43l-109 -1438l136 -30l-9 -68h-180q-113 0 -102 137l96 1204q-92 100 -180 101q-55 0 -117 -47 q-113 -90 -135 -363l-10 -125l239 8l-6 -104l-239 4l-60 -801q-16 -215 -114.5 -350t-278.5 -135q-76 0 -119 53z" />
<glyph unicode="&#xfb03;" horiz-adv-x="1673" d="M1225 813l2 55l176 37q2 0 8 1t11 1q61 0 74 -41q9 -28 9 -85q0 -26 -2 -58l-49 -623l135 -30l-8 -70q-66 -8 -135 -8q-153 0 -153 156q0 17 2 36l59 611zM1393 1325q29 29 65 29h4q41 -4 67 -38q24 -31 24 -72v-7q-4 -45 -35 -76q-29 -29 -65 -29q-2 0 -5 1 q-39 4 -64 37q-24 31 -24 73q0 49 33 82zM374 -418q-1 6 0 12q0 32 19 66q23 41 41 61l196 -92q12 0 28.5 26t36 109.5t30.5 210.5l43 568l20 270h-184l4 55l188 45l6 80q35 287 169.5 415t308.5 128q68 0 118 -53q1 -6 1 -13q0 -37 -21 -73q-10 -18 -24.5 -33.5 t-24.5 -22.5l-8 -6l-203 97q-55 -20 -99.5 -124t-56.5 -276l-10 -125l188 8q2 -2 4 -7t4.5 -18t2.5 -26l-17 -53l-188 4l-21 -283l-39 -518q-16 -215 -114.5 -350t-278.5 -135q-76 0 -119 53zM-197 -418q-1 6 0 12q0 32 19 66q23 41 41 61l196 -92q12 0 28.5 26t36 109.5 t30.5 210.5l43 568l20 270h-184l4 55l188 45l6 80q35 287 169.5 415t308.5 128q68 0 118 -53q1 -6 1 -13q0 -37 -21 -73q-10 -18 -24.5 -33.5t-24.5 -22.5l-8 -6l-203 97q-55 -20 -99.5 -124t-56.5 -276l-10 -125l188 8q2 -2 4 -7t4.5 -18t2.5 -26l-17 -53l-188 4l-21 -283 l-39 -518q-16 -215 -114.5 -350t-278.5 -135q-76 0 -119 53z" />
<glyph unicode="&#xfb04;" horiz-adv-x="1624" d="M1245 1432l4 63l275 41l-107 -1438l136 -30l-9 -70q-55 -8 -125 -8q-92 0 -124 42q-26 34 -27 110q0 19 2 40l96 1235zM374 -418q-1 6 0 12q0 32 19 66q23 41 41 61l196 -92q12 0 28.5 26t36 109.5t30.5 210.5l43 568l20 270h-184l4 55l188 45l6 80q35 287 169.5 415 t308.5 128q68 0 118 -53q1 -6 1 -13q0 -37 -21 -73q-10 -18 -24.5 -33.5t-24.5 -22.5l-8 -6l-203 97q-55 -20 -99.5 -124t-56.5 -276l-10 -125l188 8q2 -2 4 -7t4.5 -18t2.5 -26l-17 -53l-188 4l-21 -283l-39 -518q-16 -215 -114.5 -350t-278.5 -135q-76 0 -119 53z M-197 -418q-1 6 0 12q0 32 19 66q23 41 41 61l196 -92q12 0 28.5 26t36 109.5t30.5 210.5l43 568l20 270h-184l4 55l188 45l6 80q35 287 169.5 415t308.5 128q68 0 118 -53q1 -6 1 -13q0 -37 -21 -73q-10 -18 -24.5 -33.5t-24.5 -22.5l-8 -6l-203 97q-55 -20 -99.5 -124 t-56.5 -276l-10 -125l188 8q2 -2 4 -7t4.5 -18t2.5 -26l-17 -53l-188 4l-21 -283l-39 -518q-16 -215 -114.5 -350t-278.5 -135q-76 0 -119 53z" />
</font>
</defs>
</svg>
